<?xml version="1.0" encoding="utf-8"?>
<!-- Generator: Adobe Illustrator 22.1.0, SVG Export Plug-In . SVG Version: 6.00 Build 0)  -->
<svg version="1.1" id="Layer_1" xmlns="http://www.w3.org/2000/svg" xmlns:xlink="http://www.w3.org/1999/xlink" x="0px" y="0px"
	 viewBox="0 0 220 65.4" style="enable-background:new 0 0 220 65.4;" xml:space="preserve">
<style type="text/css">
	.st0{fill:#DA291C;}
	.st1{fill:none;}
	.st2{fill:#404040;}
</style>
<title>Artboard 1</title>
<g>
	<polygon class="st0" points="23,30.7 6.9,58.4 9.2,58.4 23,34.6 23,38.6 11.5,58.4 13.8,58.4 23,42.6 23,46.5 16.1,58.4 18.4,58.4 
		23,50.5 23,54.5 20.7,58.4 23,58.4 23,58.4 39,58.4 	"/>
	<path d="M46,34.6h14.7v3.1H49.4v5.2h10v3.2h-10v5.3h11.4v3.1H46V34.6z"/>
	<path d="M83.3,34.6l-6.9,9.7l7.2,10.2h-4.1l-5.2-7.6L69,54.5h-4l7.2-10.1l-6.9-9.8h4.1l4.9,7.2l5-7.2
		C79.3,34.6,83.3,34.6,83.3,34.6z"/>
	<path d="M86.5,44.6L86.5,44.6c0.2-5.8,4.9-10.3,10.7-10.1c5.5,0.2,9.9,4.5,10.1,10l0,0c0.2,5.7-4.3,10.5-10,10.7s-10.5-4.3-10.7-10
		C86.5,45,86.5,44.8,86.5,44.6L86.5,44.6z M103.6,44.6L103.6,44.6c0.1-3.8-2.8-6.9-6.5-7.1c-0.1,0-0.1,0-0.2,0c-3.7,0-6.7,3-6.7,6.7
		c0,0.1,0,0.2,0,0.3l0,0c-0.1,3.7,2.8,6.9,6.5,7c0.1,0,0.1,0,0.2,0c3.7,0,6.7-3,6.7-6.7C103.6,44.8,103.6,44.7,103.6,44.6
		L103.6,44.6z"/>
	<path d="M111.6,51.6l2.1-2.5c1.7,1.6,3.9,2.5,6.3,2.6c2.2,0,3.5-1,3.5-2.5l0,0c0-1.4-0.8-2.2-4.5-3.1c-4.2-1-6.6-2.3-6.6-5.9l0,0
		c0-3.4,2.8-5.8,6.8-5.8c2.6,0,5.2,0.8,7.2,2.5l-1.8,2.6c-1.5-1.2-3.4-1.9-5.4-2c-2,0-3.2,1-3.2,2.3l0,0c0,1.5,0.9,2.2,4.7,3.1
		c4.2,1,6.3,2.5,6.3,5.8V49c0,3.7-2.9,5.9-7.1,5.9C116.8,54.9,113.8,53.7,111.6,51.6z"/>
	<path d="M131.7,44.6L131.7,44.6c-0.1-5.6,4.2-10.2,9.7-10.3c0,0,0,0,0.1,0h0.5c2.9-0.1,5.7,1,7.8,3.1l-2.2,2.6
		c-1.5-1.5-3.5-2.4-5.6-2.5c-3.7,0-6.5,3.1-6.5,7v0.1c0,3.9,2.8,7,6.6,7c2.2,0,4.2-1,5.6-2.6l2.2,2.3c-2,2.3-5,3.6-8.1,3.5
		c-5.5,0.1-10-4.3-10.1-9.8V44.6z"/>
	<path d="M162.2,34.5h3.2l8.7,20h-3.7l-2-4.8H159l-2,4.8h-3.6L162.2,34.5z M167.2,46.6l-3.4-8l-3.4,8H167.2z"/>
	<path d="M179.1,34.6h3.5v16.7H193v3.2h-13.9V34.6z"/>
	<path d="M198.2,34.6h14.7v3.1h-11.2v5.2h9.9v3.2h-9.9v5.3h11.4v3.1h-14.9V34.6z"/>
	<rect y="23.7" class="st1" width="220" height="41.7"/>
	<rect x="6.9" y="23.4" class="st2" width="206.1" height="0.6"/>
	<rect class="st1" width="220" height="23.7"/>
	<g>
		<path class="st2" d="M69.1,7.4h3.6c2.2,0,3.7,1.1,3.7,3.1l0,0c0,2.1-1.8,3.2-3.9,3.2h-2.7v3.7h-0.7V7.4z M72.6,13
			c1.9,0,3.1-1,3.1-2.5l0,0c0-1.6-1.2-2.4-3-2.4h-2.8V13H72.6z"/>
		<path class="st2" d="M78,13.8L78,13.8c0-2.1,1.6-3.9,3.8-3.9c2.2,0,3.7,1.8,3.7,3.8l0,0c0,2.1-1.6,3.8-3.8,3.8
			C79.5,17.6,78,15.8,78,13.8z M84.7,13.8L84.7,13.8c0-1.8-1.3-3.2-3-3.2s-3,1.4-3,3.1l0,0c0,1.8,1.3,3.2,3,3.2
			C83.5,16.9,84.7,15.5,84.7,13.8z"/>
		<path class="st2" d="M86.7,10.1h0.8l2.2,6.4l2.2-6.5h0.6l2.2,6.5l2.2-6.4h0.8L95,17.5h-0.6l-2.2-6.3L90,17.5h-0.6L86.7,10.1z"/>
		<path class="st2" d="M98.8,13.8L98.8,13.8c0-2.2,1.5-3.8,3.5-3.8c2.1,0,3.4,1.7,3.4,3.8c0,0.1,0,0.2,0,0.3h-6.1
			c0.1,1.8,1.4,2.9,2.9,2.9c1.1,0,1.9-0.5,2.5-1.1l0.5,0.4c-0.7,0.8-1.6,1.4-3,1.4C100.5,17.6,98.8,16.1,98.8,13.8z M104.9,13.4
			c-0.1-1.5-0.9-2.8-2.6-2.8c-1.5,0-2.6,1.2-2.7,2.8H104.9z"/>
		<path class="st2" d="M107.7,10.1h0.7v2.1c0.6-1.3,1.8-2.3,3.2-2.2v0.8h-0.1c-1.7,0-3.2,1.3-3.2,3.7v3h-0.7L107.7,10.1L107.7,10.1z
			"/>
		<path class="st2" d="M112.6,13.8L112.6,13.8c0-2.2,1.5-3.8,3.5-3.8c2.1,0,3.4,1.7,3.4,3.8c0,0.1,0,0.2,0,0.3h-6.1
			c0.1,1.8,1.4,2.9,2.9,2.9c1.1,0,1.9-0.5,2.5-1.1l0.5,0.4c-0.7,0.8-1.6,1.4-3,1.4C114.2,17.6,112.6,16.1,112.6,13.8z M118.6,13.4
			c-0.1-1.5-0.9-2.8-2.6-2.8c-1.5,0-2.6,1.2-2.7,2.8H118.6z"/>
		<path class="st2" d="M121,13.8L121,13.8c0-2.4,1.8-3.9,3.6-3.9c1.5,0,2.4,0.8,3,1.8V6.9h0.7v10.5h-0.7v-1.6c-0.6,1-1.6,1.8-3,1.8
			C122.8,17.6,121,16.2,121,13.8z M127.6,13.8L127.6,13.8c0-1.9-1.5-3.2-3-3.2c-1.6,0-2.9,1.2-2.9,3.1l0,0c0,1.9,1.3,3.2,2.9,3.2
			C126.1,16.9,127.6,15.6,127.6,13.8z"/>
		<path class="st2" d="M136,15.8v1.6h-0.7V6.9h0.7v4.8c0.6-1,1.6-1.8,3-1.8c1.8,0,3.6,1.4,3.6,3.8l0,0c0,2.4-1.8,3.8-3.6,3.8
			C137.5,17.6,136.6,16.8,136,15.8z M141.8,13.8L141.8,13.8c0-2-1.3-3.2-2.9-3.2c-1.5,0-3,1.3-3,3.1l0,0c0,1.9,1.5,3.1,3,3.1
			C140.5,16.9,141.8,15.8,141.8,13.8z"/>
		<path class="st2" d="M150.1,10.1h0.8l-3.2,7.6c-0.6,1.5-1.4,2.1-2.4,2.1c-0.6,0-1-0.1-1.5-0.3l0.2-0.6c0.4,0.2,0.7,0.3,1.2,0.3
			c0.8,0,1.3-0.4,1.8-1.7l-3.5-7.3h0.8l3,6.5L150.1,10.1z"/>
	</g>
</g>
</svg>
