<svg viewBox="0 0 142 30" fill="none" xmlns="http://www.w3.org/2000/svg">
<path fill-rule="evenodd" clip-rule="evenodd" d="M20.6071 13.3448L26.1818 10.1149C26.3963 9.99063 26.4697 9.71541 26.3459 9.50018L25.393 7.84385C25.2692 7.62862 24.9949 7.55487 24.7805 7.67914L19.2456 10.886C18.1743 9.72584 16.6452 9 14.9476 9C13.2501 9 11.7209 9.72585 10.6496 10.8861L5.11486 7.67923C4.90038 7.55496 4.62614 7.6287 4.50231 7.84394L3.54941 9.50026C3.42558 9.7155 3.49907 9.99072 3.71354 10.115L9.28807 13.3449C9.153 13.8422 9.08088 14.3658 9.08088 14.9063C9.08088 17.6819 10.9828 20.0104 13.5462 20.6429V27.2069C13.5462 27.4554 13.747 27.6569 13.9946 27.6569H15.9004C16.1481 27.6569 16.3488 27.4554 16.3488 27.2069V20.643C18.9123 20.0105 20.8143 17.682 20.8143 14.9063C20.8143 14.3657 20.7422 13.8422 20.6071 13.3448ZM11.8926 14.9063C11.8926 13.1942 13.2689 11.8217 14.9476 11.8217C16.6264 11.8217 18.0026 13.1942 18.0026 14.9063C18.0026 16.6183 16.6264 17.9908 14.9476 17.9908C13.2689 17.9908 11.8926 16.6183 11.8926 14.9063Z" fill="#476CEF"/>
<path d="M13.5469 2.79399C13.5469 2.54547 13.7476 2.34399 13.9953 2.34399H15.9011C16.1487 2.34399 16.3495 2.54547 16.3495 2.79399V6.58161C16.3495 6.83014 16.1487 7.03161 15.9011 7.03161H13.9953C13.7476 7.03161 13.5469 6.83014 13.5469 6.58161V2.79399Z" fill="#94ABFF"/>
<path d="M26.182 19.8861C26.3964 20.0103 26.4699 20.2856 26.3461 20.5008L25.3932 22.1571C25.2694 22.3724 24.9951 22.4461 24.7807 22.3218L21.5121 20.428C21.2976 20.3038 21.2241 20.0286 21.348 19.8133L22.3009 18.157C22.4247 17.9418 22.6989 17.868 22.9134 17.9923L26.182 19.8861Z" fill="#94ABFF"/>
<path d="M5.11588 22.3208C4.90141 22.445 4.62716 22.3713 4.50333 22.1561L3.55043 20.4997C3.42661 20.2845 3.50009 20.0093 3.71457 19.885L6.98313 17.9912C7.19761 17.867 7.47185 17.9407 7.59568 18.1559L8.54858 19.8123C8.67241 20.0275 8.59892 20.3027 8.38444 20.427L5.11588 22.3208Z" fill="#94ABFF"/>
<path d="M38.0912 22.3389C37.9807 22.3389 37.8912 22.2493 37.8912 22.1389V10.3795C37.8912 10.269 37.8016 10.1795 37.6912 10.1795H33.8318C33.7214 10.1795 33.6318 10.0899 33.6318 9.97948V7.7C33.6318 7.58954 33.7214 7.5 33.8318 7.5H45.016C45.1265 7.5 45.216 7.58954 45.216 7.7V9.97948C45.216 10.0899 45.1265 10.1795 45.016 10.1795H41.278C41.1676 10.1795 41.078 10.269 41.078 10.3795V22.1389C41.078 22.2493 40.9885 22.3389 40.878 22.3389H38.0912Z" fill="#0A0F25"/>
<path d="M50.0032 22.5982C48.984 22.5982 48.0653 22.3749 47.247 21.9283C46.4288 21.4817 45.7828 20.8407 45.3091 20.0051C44.8353 19.1696 44.5985 18.1612 44.5985 16.9799C44.5985 15.813 44.8353 14.8118 45.3091 13.9763C45.7971 13.1408 46.4288 12.4997 47.204 12.0531C47.9791 11.5921 48.7902 11.3617 49.6372 11.3617C50.6564 11.3617 51.4962 11.5921 52.1565 12.0531C52.8312 12.4997 53.3337 13.112 53.6638 13.8899C54.0084 14.6534 54.1806 15.5249 54.1806 16.5045C54.1806 16.7782 54.1663 17.0519 54.1375 17.3257C54.1188 17.4953 54.1 17.6372 54.0812 17.7513C54.066 17.8439 53.9847 17.9091 53.8909 17.9091H47.8964C47.7714 17.9091 47.6767 18.0227 47.7065 18.1441C47.8685 18.8041 48.1747 19.302 48.6251 19.6378C49.1276 19.9979 49.7305 20.178 50.4339 20.178C51.1355 20.178 51.8432 19.9759 52.557 19.5716C52.6565 19.5153 52.7839 19.5488 52.8389 19.6489L53.706 21.2294C53.7554 21.3195 53.7287 21.4327 53.6424 21.4884C53.1359 21.8158 52.576 22.0776 51.9627 22.274C51.288 22.4901 50.6349 22.5982 50.0032 22.5982ZM47.6809 15.5808C47.6531 15.7014 47.7476 15.813 47.8714 15.813H51.289C51.3995 15.813 51.4897 15.7234 51.4833 15.6131C51.454 15.1126 51.3124 14.6966 51.0583 14.3653C50.7856 13.9763 50.3334 13.7818 49.7018 13.7818C49.2137 13.7818 48.7759 13.9547 48.3883 14.3004C48.0464 14.5927 47.8106 15.0195 47.6809 15.5808Z" fill="#0A0F25"/>
<path d="M56.5679 22.3389C56.4574 22.3389 56.3679 22.2493 56.3679 22.1389V11.821C56.3679 11.7105 56.4574 11.621 56.5679 11.621H58.7734C58.8751 11.621 58.9606 11.6972 58.9721 11.7982L59.1613 13.4497C59.1646 13.4789 59.1893 13.5009 59.2187 13.5009V13.5009C59.24 13.5009 59.2596 13.4891 59.2698 13.4705C59.6541 12.7656 60.1151 12.2427 60.6529 11.9019C61.1984 11.5417 61.7439 11.3617 62.2894 11.3617C62.5909 11.3617 62.8421 11.3833 63.0431 11.4265C63.1831 11.4466 63.3093 11.4771 63.4215 11.5182C63.5053 11.5489 63.5485 11.6382 63.532 11.7259L63.0845 14.1019C63.0624 14.2192 62.9432 14.2907 62.8273 14.2618C62.7126 14.2332 62.5979 14.2101 62.4832 14.1924C62.311 14.1636 62.11 14.1492 61.8803 14.1492C61.4784 14.1492 61.0549 14.3004 60.6099 14.603C60.1864 14.8863 59.8323 15.3786 59.5476 16.0798C59.538 16.1033 59.5332 16.1286 59.5332 16.154V22.1389C59.5332 22.2493 59.4437 22.3389 59.3332 22.3389H56.5679Z" fill="#0A0F25"/>
<path d="M65.1474 22.3389C65.0369 22.3389 64.9474 22.2493 64.9474 22.1389V11.821C64.9474 11.7105 65.0369 11.621 65.1474 11.621H67.3529C67.4546 11.621 67.5401 11.6972 67.5516 11.7982L67.7408 13.4497C67.7441 13.4789 67.7688 13.5009 67.7982 13.5009V13.5009C67.8195 13.5009 67.8391 13.4891 67.8493 13.4705C68.2336 12.7656 68.6946 12.2427 69.2324 11.9019C69.7779 11.5417 70.3234 11.3617 70.8689 11.3617C71.1704 11.3617 71.4216 11.3833 71.6226 11.4265C71.7626 11.4466 71.8888 11.4771 72.001 11.5182C72.0848 11.5489 72.128 11.6382 72.1115 11.7259L71.664 14.1019C71.6419 14.2192 71.5227 14.2907 71.4068 14.2618C71.2921 14.2332 71.1774 14.2101 71.0627 14.1924C70.8905 14.1636 70.6895 14.1492 70.4598 14.1492C70.0579 14.1492 69.6344 14.3004 69.1894 14.603C68.7659 14.8863 68.4118 15.3786 68.1271 16.0798C68.1176 16.1033 68.1127 16.1286 68.1127 16.154V22.1389C68.1127 22.2493 68.0232 22.3389 67.9127 22.3389H65.1474Z" fill="#0A0F25"/>
<path d="M75.6087 22.5982C74.6325 22.5982 73.8573 22.2884 73.2831 21.669C72.7089 21.0351 72.4218 20.2644 72.4218 19.3569C72.4218 18.2332 72.8955 17.3545 73.843 16.7206C74.7616 16.106 76.2269 15.6878 78.2387 15.466C78.3453 15.4542 78.4254 15.361 78.4111 15.2547C78.359 14.8689 78.2216 14.558 77.9988 14.322C77.7548 14.0339 77.3385 13.8899 76.7499 13.8899C76.3049 13.8899 75.8527 13.9763 75.3934 14.1492C74.9873 14.302 74.5589 14.5054 74.108 14.7595C74.0097 14.8149 73.8844 14.7802 73.8305 14.6811L72.8783 12.9323C72.8276 12.8391 72.8584 12.7223 72.9496 12.6681C73.5769 12.2951 74.2408 11.9893 74.9412 11.7506C75.7163 11.4913 76.5202 11.3617 77.3528 11.3617C78.7166 11.3617 79.7645 11.7578 80.4966 12.5501C81.2288 13.3424 81.5948 14.5597 81.5948 16.202V22.1389C81.5948 22.2493 81.5053 22.3389 81.3948 22.3389H79.1756C79.0799 22.3389 78.9976 22.2711 78.9793 22.1772L78.8068 21.2944C78.8003 21.261 78.771 21.2368 78.7369 21.2368V21.2368C78.7192 21.2368 78.7022 21.2434 78.689 21.2552C78.2497 21.6503 77.7756 21.9755 77.2667 22.2308C76.7643 22.4757 76.2116 22.5982 75.6087 22.5982ZM76.6853 20.1348C77.0442 20.1348 77.3528 20.0556 77.6112 19.8971C77.8644 19.7366 78.1176 19.5327 78.3708 19.2854C78.4086 19.2484 78.4295 19.1975 78.4295 19.1446V17.5746C78.4295 17.4541 78.3234 17.3608 78.2041 17.3781C77.2051 17.5233 76.5051 17.7435 76.1039 18.0387C75.6733 18.3413 75.458 18.7014 75.458 19.1192C75.458 19.4649 75.5656 19.7242 75.7809 19.8971C76.0106 20.0556 76.3121 20.1348 76.6853 20.1348Z" fill="#0A0F25"/>
<path d="M87.0494 22.5982C86.346 22.5982 85.6211 22.4613 84.8746 22.1876C84.2072 21.9381 83.6173 21.6167 83.1049 21.2235C83.0213 21.1594 83.0058 21.0405 83.0671 20.9548L84.2612 19.2843C84.3262 19.1935 84.4528 19.1737 84.5439 19.2382C84.9725 19.5418 85.3842 19.783 85.779 19.9619C86.2383 20.1492 86.6905 20.2428 87.1355 20.2428C87.6093 20.2428 87.9538 20.1636 88.1691 20.0051C88.3844 19.8323 88.4921 19.609 88.4921 19.3353C88.4921 19.0904 88.3844 18.8887 88.1691 18.7302C87.9681 18.5718 87.7026 18.4277 87.3724 18.298C87.0422 18.154 86.6905 18.0099 86.3173 17.8659C85.8866 17.693 85.456 17.4769 85.0253 17.2176C84.609 16.9583 84.2573 16.627 83.9702 16.2236C83.6831 15.8058 83.5395 15.3016 83.5395 14.711C83.5395 13.717 83.9128 12.9103 84.6593 12.2908C85.4201 11.6714 86.4106 11.3617 87.6308 11.3617C88.449 11.3617 89.1668 11.5057 89.7841 11.7938C90.3432 12.0361 90.8291 12.3066 91.242 12.6053C91.3303 12.6692 91.3468 12.7929 91.2815 12.8802L90.0995 14.4618C90.0326 14.5513 89.9057 14.5684 89.8151 14.503C89.4961 14.2729 89.1771 14.0901 88.8582 13.9547C88.4849 13.7962 88.1117 13.717 87.7385 13.717C86.9202 13.717 86.5111 13.9979 86.5111 14.5597C86.5111 14.9055 86.7121 15.172 87.114 15.3593C87.5303 15.5321 88.0112 15.7194 88.5567 15.9211C89.0161 16.0796 89.4611 16.2884 89.8917 16.5477C90.3368 16.7926 90.7028 17.124 90.9899 17.5417C91.2914 17.9451 91.4421 18.4781 91.4421 19.1408C91.4421 20.106 91.0689 20.9271 90.3224 21.6042C89.5759 22.2668 88.4849 22.5982 87.0494 22.5982Z" fill="#0A0F25"/>
<path d="M97.747 22.5982C96.4263 22.5982 95.4789 22.2164 94.9047 21.4529C94.3448 20.6894 94.0649 19.6882 94.0649 18.4493V14.306C94.0649 14.1955 93.9753 14.106 93.8649 14.106H92.8006C92.6902 14.106 92.6006 14.0164 92.6006 13.906V11.9354C92.6006 11.8311 92.6808 11.7443 92.7848 11.736L94.0752 11.6338C94.1696 11.6263 94.2458 11.5537 94.2578 11.4599L94.5808 8.94315C94.5936 8.84335 94.6786 8.76861 94.7792 8.76861H97.0302C97.1407 8.76861 97.2302 8.85815 97.2302 8.96861V11.421C97.2302 11.5314 97.3197 11.621 97.4302 11.621H99.5926C99.7031 11.621 99.7926 11.7105 99.7926 11.821V13.906C99.7926 14.0164 99.7031 14.106 99.5926 14.106H97.4302C97.3197 14.106 97.2302 14.1955 97.2302 14.306V18.4061C97.2302 19.0111 97.3522 19.4505 97.5963 19.7242C97.8547 19.9835 98.192 20.1132 98.6083 20.1132C98.7806 20.1132 98.9528 20.0916 99.1251 20.0483C99.2213 20.0261 99.3117 20.0019 99.3964 19.9758C99.515 19.9393 99.6441 20.008 99.6701 20.1292L100.078 22.0316C100.099 22.1323 100.041 22.2332 99.9417 22.2618C99.7034 22.3307 99.424 22.3996 99.1036 22.4685C98.716 22.555 98.2638 22.5982 97.747 22.5982Z" fill="#0A0F25"/>
<path d="M102.077 22.3389C101.967 22.3389 101.877 22.2493 101.877 22.1389V11.821C101.877 11.7105 101.967 11.621 102.077 11.621H104.283C104.384 11.621 104.47 11.6972 104.482 11.7982L104.671 13.4497C104.674 13.4789 104.699 13.5009 104.728 13.5009V13.5009C104.749 13.5009 104.769 13.4891 104.779 13.4705C105.163 12.7656 105.625 12.2427 106.162 11.9019C106.708 11.5417 107.253 11.3617 107.799 11.3617C108.1 11.3617 108.351 11.3833 108.552 11.4265C108.693 11.4466 108.819 11.4771 108.931 11.5182C109.015 11.5489 109.058 11.6382 109.041 11.7259L108.594 14.1019C108.572 14.2192 108.453 14.2907 108.337 14.2618C108.222 14.2332 108.107 14.2101 107.993 14.1924C107.82 14.1636 107.619 14.1492 107.39 14.1492C106.988 14.1492 106.564 14.3004 106.119 14.603C105.696 14.8863 105.342 15.3786 105.057 16.0798C105.047 16.1033 105.043 16.1286 105.043 16.154V22.1389C105.043 22.2493 104.953 22.3389 104.843 22.3389H102.077Z" fill="#0A0F25"/>
<path d="M113.665 22.5982C112.502 22.5982 111.655 22.2164 111.124 21.4529C110.608 20.675 110.349 19.6162 110.349 18.2764V11.821C110.349 11.7105 110.439 11.621 110.549 11.621H113.314C113.425 11.621 113.514 11.7105 113.514 11.821V17.8659C113.514 18.6294 113.622 19.1624 113.837 19.4649C114.053 19.753 114.39 19.8971 114.849 19.8971C115.251 19.8971 115.589 19.8035 115.862 19.6162C116.123 19.437 116.403 19.1523 116.704 18.762C116.73 18.7275 116.744 18.6851 116.744 18.6415V11.821C116.744 11.7105 116.834 11.621 116.944 11.621H119.71C119.82 11.621 119.91 11.7105 119.91 11.821V22.1389C119.91 22.2493 119.82 22.3389 119.71 22.3389H117.496C117.398 22.3389 117.314 22.2674 117.299 22.1702L117.095 20.8891C117.092 20.8653 117.071 20.8479 117.047 20.8479V20.8479C117.033 20.8479 117.019 20.8543 117.01 20.8654C116.569 21.3902 116.085 21.8093 115.56 22.1228C115.029 22.4397 114.397 22.5982 113.665 22.5982Z" fill="#0A0F25"/>
<path d="M127.346 22.5982C126.356 22.5982 125.459 22.3821 124.655 21.9499C123.865 21.5033 123.234 20.8623 122.76 20.0267C122.3 19.1768 122.071 18.1612 122.071 16.9799C122.071 15.7842 122.329 14.7686 122.846 13.9331C123.363 13.0976 124.045 12.4637 124.892 12.0315C125.739 11.5849 126.65 11.3617 127.626 11.3617C128.287 11.3617 128.868 11.4697 129.37 11.6858C129.825 11.876 130.236 12.1108 130.601 12.3902C130.685 12.4543 130.7 12.5735 130.638 12.659L129.388 14.3865C129.32 14.4802 129.187 14.4964 129.095 14.4272C128.653 14.0978 128.228 13.9331 127.82 13.9331C127.059 13.9331 126.449 14.2068 125.99 14.7542C125.545 15.3016 125.322 16.0435 125.322 16.9799C125.322 17.9019 125.545 18.6438 125.99 19.2056C126.449 19.753 127.023 20.0267 127.712 20.0267C128.057 20.0267 128.394 19.9547 128.724 19.8107C128.983 19.6866 129.224 19.5449 129.447 19.3855C129.545 19.3154 129.684 19.3403 129.746 19.4437L130.791 21.1792C130.841 21.2625 130.824 21.3701 130.749 21.4316C130.254 21.8365 129.723 22.1317 129.155 22.3173C128.538 22.5045 127.935 22.5982 127.346 22.5982Z" fill="#0A0F25"/>
<path d="M137.023 22.5982C135.702 22.5982 134.755 22.2164 134.18 21.4529C133.621 20.6894 133.341 19.6882 133.341 18.4493V14.306C133.341 14.1955 133.251 14.106 133.141 14.106H132.076C131.966 14.106 131.876 14.0164 131.876 13.906V11.9354C131.876 11.8311 131.957 11.7443 132.061 11.736L133.351 11.6338C133.445 11.6263 133.522 11.5537 133.534 11.4599L133.857 8.94315C133.869 8.84335 133.954 8.76861 134.055 8.76861H136.306C136.417 8.76861 136.506 8.85815 136.506 8.96861V11.421C136.506 11.5314 136.596 11.621 136.706 11.621H138.868C138.979 11.621 139.068 11.7105 139.068 11.821V13.906C139.068 14.0164 138.979 14.106 138.868 14.106H136.706C136.596 14.106 136.506 14.1955 136.506 14.306V18.4061C136.506 19.0111 136.628 19.4505 136.872 19.7242C137.13 19.9835 137.468 20.1132 137.884 20.1132C138.056 20.1132 138.229 20.0916 138.401 20.0483C138.497 20.0261 138.588 20.0019 138.672 19.9758C138.791 19.9393 138.92 20.008 138.946 20.1292L139.353 22.0316C139.375 22.1323 139.317 22.2332 139.218 22.2618C138.979 22.3307 138.7 22.3996 138.379 22.4685C137.992 22.555 137.54 22.5982 137.023 22.5982Z" fill="#0A0F25"/>
</svg>
