<svg id="Layer_1" data-name="Layer 1" xmlns="http://www.w3.org/2000/svg" viewBox="0 0 198.43 66.94"><defs><style>.cls-1{fill:#58595b;}.cls-2{fill:#ff8300;}</style></defs><title>Utoolity.logo-</title><path class="cls-1" d="M23.13,66.94h-6C7.68,66.94,0,60.16,0,51.83V3.08a3.08,3.08,0,0,1,6.17,0V51.83c0,4.93,4.91,8.94,10.94,8.94h6c6,0,10.94-4,10.94-8.94V40.74a3.08,3.08,0,0,1,6.17,0V51.83C40.24,60.16,32.57,66.94,23.13,66.94Z"/><path class="cls-1" d="M101.27,18.85h-64a3.08,3.08,0,0,0,0,6.17H49.2l0,38.84a3.08,3.08,0,0,0,3.08,3.08h0a3.09,3.09,0,0,0,3.08-3.09l0-38.83h45.91a3.08,3.08,0,1,0,0-6.17Z"/><path class="cls-1" d="M132.52,66.94h-7.41c-8.93,0-16.2-6.72-16.2-15V22a3.08,3.08,0,0,1,6.17,0V52c0,4.86,4.49,8.82,10,8.82h7.41a3.08,3.08,0,1,1,0,6.17Z"/><path class="cls-1" d="M158.23,18.85h-22a3.08,3.08,0,1,0,0,6.17h4.65l0,38.84A3.08,3.08,0,0,0,144,66.94h0A3.09,3.09,0,0,0,147,63.85L147,25h11.21a3.08,3.08,0,0,0,0-6.17Z"/><path class="cls-1" d="M197.36.76a3.08,3.08,0,0,0-4.35.3L162.77,35.87,158.31,29a3.08,3.08,0,0,0-5.17,3.36l6.19,9.51v22a3.08,3.08,0,1,0,6.16,0V42.13l32.18-37A3.08,3.08,0,0,0,197.36.76Z"/><path class="cls-2" d="M91.25,65.4A13.43,13.43,0,1,1,104.69,52,13.45,13.45,0,0,1,91.25,65.4Zm0-21.73A8.29,8.29,0,1,0,99.55,52,8.3,8.3,0,0,0,91.25,43.67Z"/><path class="cls-2" d="M69.25,45.39a8.09,8.09,0,1,1,8.09-8.09A8.1,8.1,0,0,1,69.25,45.39Zm0-12.08a4,4,0,1,0,4,4A4,4,0,0,0,69.25,33.31Z"/><path class="cls-1" d="M124.6,55.95a3.08,3.08,0,0,1-3.08-3.08V36.58a3.08,3.08,0,1,1,6.17,0V52.86A3.08,3.08,0,0,1,124.6,55.95Z"/><path class="cls-2" d="M124.6,27.84a5.91,5.91,0,1,1,5.91-5.91A5.91,5.91,0,0,1,124.6,27.84Zm0-8.73a2.82,2.82,0,1,0,2.82,2.82A2.83,2.83,0,0,0,124.6,19.12Z"/></svg>